<svg width="150" height="150" viewBox="0 0 150 150" fill="none" xmlns="http://www.w3.org/2000/svg">
<rect width="150" height="150" rx="30" fill="white"/>
<path fill-rule="evenodd" clip-rule="evenodd" d="M29.9116 99.3711L37.9893 98.0884C38.0936 98.8451 38.2392 99.559 38.4261 100.23H30.078C30.0185 99.948 29.9631 99.6616 29.9116 99.3711ZM61.5635 100.446C61.5635 101.964 61.2396 103.258 60.5917 104.327H69.2161C69.7074 102.871 69.9531 101.289 69.9531 99.5791C69.9531 96.7363 69.1442 94.298 67.5264 92.2642C65.9085 90.2072 64.0711 88.7858 62.0142 88C59.9803 87.2142 56.1437 86.047 50.5044 84.4985C45.3735 83.1118 42.1956 82.0024 40.9707 81.1704C39.7689 80.3153 39.168 79.0441 39.168 77.3569C39.168 73.2199 42.6463 71.1514 49.603 71.1514C55.8664 71.1514 59.3794 73.7861 60.1421 79.0557L68.1504 77.9463C66.9023 68.9326 60.5234 64.4258 49.0137 64.4258C43.5592 64.4258 39.2373 65.7316 36.0479 68.3433C32.8584 70.9318 31.2637 74.2599 31.2637 78.3276C31.2637 81.1935 32.0957 83.6549 33.7598 85.7119C35.4238 87.7689 37.4346 89.2365 39.792 90.1147C42.1725 90.993 45.8358 92.0562 50.7817 93.3042C55.3117 94.4598 58.2354 95.4883 59.5527 96.3896C60.8932 97.291 61.5635 98.6431 61.5635 100.446Z" fill="#D9D9D9" fill-opacity="0.7"/>
<rect x="86.0171" y="47.9941" width="8.13559" height="43.0181" fill="#D9D9D9"/>
<path d="M88.0799 81.374C90.1788 85.8863 93.7365 89.5472 98.1706 91.7575C102.605 93.9677 107.652 94.5964 112.487 93.5405C117.323 92.4846 121.658 89.8067 124.785 85.9453C127.912 82.0838 129.645 77.2676 129.7 72.285L121.573 72.1943C121.538 75.3229 120.45 78.3469 118.487 80.7715C116.524 83.1961 113.801 84.8775 110.765 85.5405C107.729 86.2035 104.56 85.8087 101.776 84.4209C98.9916 83.0331 96.7578 80.7345 95.4399 77.9013L88.0799 81.374Z" fill="#D9D9D9"/>
<path d="M110.51 41.0903L89.0503 112.208L68.5059 59.6938L48.9868 112.208L25.1465 41.0903H41.9556L52.7588 75.5874L62.6465 48.7441L60.083 41.0903H77.9541L90.4053 75.5874L100.293 41.0903H110.51Z" fill="#CAAD69"/>
<path d="M27.1383 104.002C27.152 106.89 27.7305 109.748 28.8408 112.412C29.9511 115.076 31.5714 117.493 33.6093 119.526C35.6472 121.559 38.0627 123.168 40.7179 124.261C43.3732 125.353 46.2161 125.909 49.0844 125.895C51.9527 125.881 54.7902 125.299 57.435 124.18C60.0797 123.062 62.4799 121.43 64.4984 119.378C66.5169 117.325 68.1143 114.892 69.1993 112.218C70.2843 109.544 70.8357 106.68 70.822 103.792L62.2098 103.833C62.2181 105.583 61.8841 107.317 61.2269 108.937C60.5697 110.557 59.6022 112.03 58.3796 113.273C57.157 114.517 55.7032 115.505 54.1013 116.182C52.4993 116.86 50.7806 117.213 49.0433 117.221C47.3059 117.229 45.584 116.893 43.9757 116.231C42.3674 115.569 40.9044 114.595 39.67 113.363C38.4357 112.132 37.4542 110.668 36.7817 109.054C36.1092 107.441 35.7588 105.71 35.7505 103.96L27.1383 104.002Z" fill="#4C577C" fill-opacity="0.61"/>
<path d="M129.701 48.4831C129.701 45.5942 129.136 42.7336 128.039 40.0645C126.941 37.3955 125.332 34.9704 123.304 32.9277C121.276 30.8849 118.868 29.2645 116.218 28.1589C113.568 27.0534 110.728 26.4844 107.859 26.4844C104.991 26.4844 102.151 27.0534 99.5006 28.1589C96.8506 29.2645 94.4427 30.8849 92.4145 32.9276C90.3863 34.9704 88.7774 37.3955 87.6797 40.0645C86.582 42.7335 86.0171 45.5942 86.0171 48.4831L94.1447 48.4831C94.1447 46.6692 94.4994 44.873 95.1887 43.1971C95.8779 41.5213 96.8881 39.9986 98.1616 38.7159C99.4351 37.4333 100.947 36.4159 102.611 35.7217C104.275 35.0275 106.058 34.6703 107.859 34.6703C109.66 34.6703 111.444 35.0275 113.108 35.7217C114.771 36.4159 116.283 37.4333 117.557 38.716C118.83 39.9986 119.841 41.5213 120.53 43.1972C121.219 44.873 121.574 46.6692 121.574 48.4831L129.701 48.4831Z" fill="#4C577C" fill-opacity="0.61"/>
</svg>
