<svg width="31" height="31" viewBox="0 0 31 31" fill="none" xmlns="http://www.w3.org/2000/svg">
<path d="M28.1711 5.08876C26.182 10.0488 21.1961 16.7913 17.0241 20.1367L14.4795 22.1775C14.1565 22.41 13.8336 22.6167 13.472 22.7588C13.472 22.5263 13.4591 22.2679 13.4203 22.0225C13.2782 20.9375 12.7874 19.93 11.922 19.0646C11.0436 18.1863 9.97155 17.6696 8.87363 17.5275C8.6153 17.5146 8.35697 17.4888 8.09863 17.5146C8.24072 17.1142 8.4603 16.7396 8.73155 16.4296L10.7465 13.885C14.079 9.71293 20.8474 4.70126 25.7945 2.72501C26.5565 2.44085 27.2928 2.64751 27.7578 3.12543C28.2486 3.60335 28.4811 4.3396 28.1711 5.08876Z" stroke="#484747" stroke-width="1.5" stroke-linecap="round" stroke-linejoin="round"/>
<path d="M13.472 22.7593C13.472 24.1801 12.9295 25.5364 11.9091 26.5697C11.1212 27.3576 10.0491 27.9001 8.77032 28.068L5.59282 28.4168C3.86199 28.6105 2.37657 27.138 2.58324 25.3814L2.93199 22.2039C3.24199 19.3751 5.60574 17.5668 8.11157 17.5151C8.36991 17.5022 8.64116 17.5151 8.88657 17.528C9.98449 17.6701 11.0566 18.1739 11.9349 19.0651C12.8003 19.9305 13.2912 20.938 13.4332 22.023C13.4462 22.2684 13.472 22.5139 13.472 22.7593Z" stroke="#484747" stroke-width="1.5" stroke-linecap="round" stroke-linejoin="round"/>
<path d="M18.3933 18.6906C18.3933 15.3194 15.6549 12.5811 12.2837 12.5811" stroke="#484747" stroke-width="1.5" stroke-linecap="round" stroke-linejoin="round"/>
</svg>
