<svg width="35" height="58" viewBox="0 0 35 58" fill="none" xmlns="http://www.w3.org/2000/svg">
<path d="M24 52L18.3231 56.8798C18.2816 56.9177 18.2316 56.948 18.176 56.9687C18.1205 56.9893 18.0606 57 18 57C17.9394 57 17.8795 56.9893 17.824 56.9687C17.7684 56.948 17.7184 56.9177 17.6769 56.8798L12 52" stroke="#BFBFBF" stroke-width="1.4" stroke-linecap="round" stroke-linejoin="round"/>
<path d="M6.759 43.993C5.95167 43.993 5.331 43.825 4.897 43.489C4.46767 43.1483 4.211 42.621 4.127 41.907C4.113 41.7343 4.15033 41.6037 4.239 41.515C4.33233 41.4217 4.463 41.375 4.631 41.375C4.799 41.375 4.92267 41.417 5.002 41.501C5.086 41.585 5.13967 41.711 5.163 41.879C5.219 42.2897 5.366 42.5743 5.604 42.733C5.84667 42.887 6.23167 42.964 6.759 42.964H8.775C9.40033 42.964 9.82733 42.8497 10.056 42.621C10.2893 42.3877 10.406 41.9653 10.406 41.354C10.406 40.7333 10.287 40.3063 10.049 40.073C9.81567 39.835 9.391 39.716 8.775 39.716H6.983C6.11967 39.716 5.48033 39.5083 5.065 39.093C4.65433 38.6777 4.449 38.0407 4.449 37.182C4.449 36.3233 4.652 35.6887 5.058 35.278C5.46867 34.8673 6.10567 34.662 6.969 34.662H8.733C9.489 34.662 10.07 34.823 10.476 35.145C10.8867 35.4623 11.134 35.9547 11.218 36.622C11.2367 36.7947 11.1993 36.9277 11.106 37.021C11.0173 37.1097 10.8867 37.154 10.714 37.154C10.5507 37.154 10.427 37.112 10.343 37.028C10.259 36.9393 10.2077 36.8133 10.189 36.65C10.133 36.2907 9.993 36.041 9.769 35.901C9.54967 35.761 9.20433 35.691 8.733 35.691H6.969C6.39033 35.691 5.996 35.7983 5.786 36.013C5.58067 36.223 5.478 36.6127 5.478 37.182C5.478 37.7513 5.583 38.1457 5.793 38.365C6.00767 38.5797 6.40433 38.687 6.983 38.687H8.775C9.68033 38.687 10.35 38.904 10.784 39.338C11.218 39.772 11.435 40.444 11.435 41.354C11.435 42.2593 11.218 42.9267 10.784 43.356C10.35 43.7807 9.68033 43.993 8.775 43.993H6.759ZM14.2926 35.873C13.8913 35.873 13.6906 35.6677 13.6906 35.257V34.879C13.6906 34.4777 13.8913 34.277 14.2926 34.277H14.6706C15.058 34.277 15.2516 34.4777 15.2516 34.879V35.257C15.2516 35.6677 15.058 35.873 14.6706 35.873H14.2926ZM14.4816 44C14.1363 44 13.9636 43.8273 13.9636 43.482V37.574C13.9636 37.2333 14.1363 37.063 14.4816 37.063C14.8223 37.063 14.9926 37.2333 14.9926 37.574V43.482C14.9926 43.8273 14.8223 44 14.4816 44ZM17.8264 44C17.4811 44 17.3084 43.8273 17.3084 43.482C17.3084 43.3233 17.3831 43.153 17.5324 42.971L21.6484 37.847L21.7604 38.092H18.9394C18.6734 38.092 18.4751 38.1223 18.3444 38.183C18.2138 38.239 18.1228 38.3487 18.0714 38.512C18.0341 38.6707 17.9758 38.792 17.8964 38.876C17.8218 38.96 17.7051 39.002 17.5464 39.002C17.3691 39.002 17.2338 38.9553 17.1404 38.862C17.0471 38.7687 17.0144 38.6357 17.0424 38.463C17.1218 37.987 17.3178 37.6347 17.6304 37.406C17.9431 37.1773 18.3794 37.063 18.9394 37.063H22.3694C22.7101 37.063 22.8804 37.2333 22.8804 37.574C22.8804 37.7467 22.8081 37.9217 22.6634 38.099L18.6174 43.153L18.4284 42.957L21.4874 42.971C21.7394 42.971 21.9308 42.9383 22.0614 42.873C22.1968 42.8077 22.2901 42.6957 22.3414 42.537C22.3928 42.383 22.4558 42.264 22.5304 42.18C22.6051 42.096 22.7218 42.054 22.8804 42.054C23.0578 42.054 23.1931 42.103 23.2864 42.201C23.3844 42.2943 23.4171 42.425 23.3844 42.593C23.2071 43.531 22.5748 44 21.4874 44H17.8264ZM25.7662 40.948V41.34C25.7662 41.9607 25.8829 42.3877 26.1162 42.621C26.3495 42.8543 26.7812 42.971 27.4112 42.971H28.5592C29.0725 42.971 29.4482 42.9173 29.6862 42.81C29.9289 42.698 30.0852 42.5043 30.1552 42.229C30.1925 42.075 30.2509 41.956 30.3302 41.872C30.4142 41.788 30.5379 41.746 30.7012 41.746C30.8739 41.746 31.0045 41.7927 31.0932 41.886C31.1819 41.9747 31.2122 42.1053 31.1842 42.278C31.0955 42.8613 30.8319 43.2953 30.3932 43.58C29.9592 43.86 29.3479 44 28.5592 44H27.4112C26.5012 44 25.8269 43.783 25.3882 43.349C24.9542 42.915 24.7372 42.2453 24.7372 41.34V39.73C24.7372 38.806 24.9542 38.1293 25.3882 37.7C25.8269 37.266 26.5012 37.0537 27.4112 37.063H28.5592C29.4692 37.063 30.1412 37.28 30.5752 37.714C31.0092 38.1433 31.2262 38.8153 31.2262 39.73V40.43C31.2262 40.7753 31.0559 40.948 30.7152 40.948H25.7662ZM27.4112 38.092C26.7812 38.0827 26.3495 38.1947 26.1162 38.428C25.8829 38.6613 25.7662 39.0953 25.7662 39.73V39.919H30.1972V39.73C30.1972 39.1 30.0805 38.6707 29.8472 38.442C29.6185 38.2087 29.1892 38.092 28.5592 38.092H27.4112Z" fill="#BFBFBF"/>
<path d="M2.69678 19.6813L6.39239 17.4242C8.66886 16.04 11.4999 16.0914 13.765 17.5579C16.03 19.0244 18.8611 19.0757 21.1376 17.6916C23.414 16.3074 26.2451 16.3587 28.5102 17.8252L32.1872 20.216" stroke="#484747" stroke-width="2" stroke-miterlimit="10" stroke-linecap="round" stroke-linejoin="round"/>
<path d="M2.71492 15.1722L6.41053 12.9151C8.687 11.531 11.5181 11.5823 13.7831 13.0488C16.0482 14.5153 18.8792 14.5667 21.1557 13.1825C23.4322 11.7983 26.2633 11.8497 28.5283 13.3162L32.2053 15.707" stroke="#484747" stroke-width="1.5" stroke-miterlimit="10" stroke-linecap="round" stroke-linejoin="round"/>
<path d="M2.73347 10.5238L6.42908 8.26671C8.70556 6.88253 11.5366 6.93387 13.8017 8.40039C16.0667 9.86691 18.8978 9.91824 21.1743 8.53406C23.4507 7.14989 26.2818 7.20122 28.5469 8.66774L32.2239 11.0585" stroke="#484747" stroke-miterlimit="10" stroke-linecap="round" stroke-linejoin="round"/>
<path d="M2.74617 7.42713L6.44178 5.17003C8.71825 3.78585 11.5493 3.83719 13.8144 5.30371C16.0794 6.77023 18.9105 6.82156 21.187 5.43738C23.4634 4.05321 26.2945 4.10454 28.5596 5.57106L32.2366 7.96184" stroke="#484747" stroke-width="0.7" stroke-miterlimit="10" stroke-linecap="round" stroke-linejoin="round"/>
</svg>
