<svg width="19" height="18" viewBox="0 0 19 18" fill="none" xmlns="http://www.w3.org/2000/svg">
<path d="M16.625 4.48438C13.9888 4.23687 11.3367 4.10938 8.6925 4.10938C7.125 4.10938 5.5575 4.18438 3.99 4.33438L2.375 4.48438" stroke="#949CB6" stroke-width="1.5" stroke-linecap="round" stroke-linejoin="round"/>
<path d="M6.729 3.7275L6.90317 2.745C7.02984 2.0325 7.12484 1.5 8.46275 1.5H10.5369C11.8748 1.5 11.9778 2.0625 12.0965 2.7525L12.2707 3.7275" stroke="#949CB6" stroke-width="1.5" stroke-linecap="round" stroke-linejoin="round"/>
<path d="M14.923 6.85547L14.4084 14.408C14.3213 15.5855 14.2501 16.5005 12.0413 16.5005H6.95881C4.75006 16.5005 4.67882 15.5855 4.59173 14.408L4.07715 6.85547" stroke="#949CB6" stroke-width="1.5" stroke-linecap="round" stroke-linejoin="round"/>
<path d="M8.17773 12.375H10.814" stroke="#949CB6" stroke-width="1.5" stroke-linecap="round" stroke-linejoin="round"/>
<path d="M7.521 9.375H11.4793" stroke="#949CB6" stroke-width="1.5" stroke-linecap="round" stroke-linejoin="round"/>
</svg>
