<svg width="20" height="20" viewBox="0 0 20 20" fill="none" xmlns="http://www.w3.org/2000/svg">
<path d="M7.49992 8.33333C8.42039 8.33333 9.16659 7.58714 9.16659 6.66667C9.16659 5.74619 8.42039 5 7.49992 5C6.57944 5 5.83325 5.74619 5.83325 6.66667C5.83325 7.58714 6.57944 8.33333 7.49992 8.33333Z" stroke="#949CB6" stroke-width="1.5" stroke-linecap="round" stroke-linejoin="round"/>
<path d="M10.8334 1.6665H7.50008C3.33341 1.6665 1.66675 3.33317 1.66675 7.49984V12.4998C1.66675 16.6665 3.33341 18.3332 7.50008 18.3332H12.5001C16.6667 18.3332 18.3334 16.6665 18.3334 12.4998V8.33317" stroke="#949CB6" stroke-width="1.5" stroke-linecap="round" stroke-linejoin="round"/>
<path d="M13.125 4.1665H17.7083" stroke="#949CB6" stroke-width="1.5" stroke-linecap="round"/>
<path d="M15.4167 6.45833V1.875" stroke="#949CB6" stroke-width="1.5" stroke-linecap="round"/>
<path d="M2.2251 15.7918L6.33343 13.0335C6.99176 12.5918 7.94176 12.6418 8.53343 13.1501L8.80843 13.3918C9.45843 13.9501 10.5084 13.9501 11.1584 13.3918L14.6251 10.4168C15.2751 9.85846 16.3251 9.85846 16.9751 10.4168L18.3334 11.5835" stroke="#949CB6" stroke-width="1.5" stroke-linecap="round" stroke-linejoin="round"/>
</svg>
