<svg width="21" height="21" viewBox="0 0 21 21" fill="none" xmlns="http://www.w3.org/2000/svg">
<path d="M15.75 16.5025H15.085C14.385 16.5025 13.72 16.7738 13.23 17.2638L11.7337 18.7425C11.0512 19.4163 9.94001 19.4163 9.25751 18.7425L7.76125 17.2638C7.27125 16.7738 6.5975 16.5025 5.90625 16.5025H5.25C3.7975 16.5025 2.625 15.3388 2.625 13.9038V4.35751C2.625 2.92251 3.7975 1.75879 5.25 1.75879H15.75C17.2025 1.75879 18.375 2.92251 18.375 4.35751V13.9038C18.375 15.33 17.2025 16.5025 15.75 16.5025Z" stroke="#949CB6" stroke-width="1.5" stroke-miterlimit="10" stroke-linecap="round" stroke-linejoin="round"/>
<path d="M10.4999 8.74984C11.6259 8.74984 12.5387 7.83705 12.5387 6.71107C12.5387 5.5851 11.6259 4.67236 10.4999 4.67236C9.37398 4.67236 8.46118 5.5851 8.46118 6.71107C8.46118 7.83705 9.37398 8.74984 10.4999 8.74984Z" stroke="#949CB6" stroke-width="1.5" stroke-linecap="round" stroke-linejoin="round"/>
<path d="M14 13.7026C14 12.1276 12.4338 10.8501 10.5 10.8501C8.56625 10.8501 7 12.1276 7 13.7026" stroke="#949CB6" stroke-width="1.5" stroke-linecap="round" stroke-linejoin="round"/>
</svg>
