<svg width="130" height="130" viewBox="0 0 130 130" fill="none" xmlns="http://www.w3.org/2000/svg">
<path fill-rule="evenodd" clip-rule="evenodd" d="M40.2441 104.317C40.2441 104.821 40.2116 105.303 40.1467 105.763H48.4746V109.148C49.1495 107.394 49.4869 105.465 49.4869 103.362C49.4869 100.23 48.5957 97.5438 46.8134 95.3032C45.031 93.037 43.0067 91.4711 40.7407 90.6054C38.4999 89.7397 34.2732 88.4538 28.0604 86.7478C22.4078 85.2201 18.9067 83.9978 17.5571 83.0812C16.2331 82.1392 15.5711 80.7387 15.5711 78.8799C15.5711 74.3222 19.4031 72.0433 27.0673 72.0433C33.9677 72.0433 37.8379 74.946 38.6782 80.7515L47.5009 79.5293C46.126 69.5989 39.0984 64.6338 26.4181 64.6338C20.409 64.6338 15.6475 66.0724 12.1337 68.9497C8.61988 71.8014 6.86298 75.468 6.86298 79.9493C6.86298 83.1067 7.77962 85.8184 9.61292 88.0846C11.4461 90.3508 13.6614 91.9676 16.2586 92.9351C18.8812 93.9027 22.917 95.0741 28.366 96.449C33.3565 97.7221 36.5776 98.8552 38.0289 99.8481C39.5057 100.841 40.2441 102.331 40.2441 104.317Z" fill="#D9D9D9" fill-opacity="0.7"/>
<path d="M74.9152 45.1694H66.1017V91.4406H74.9152V45.1694Z" fill="#D9D9D9"/>
<path d="M68.3366 81.0739C70.6104 85.9273 74.4646 89.8651 79.2682 92.2424C84.0718 94.6199 89.5402 95.296 94.7782 94.1603C100.016 93.0245 104.713 90.1443 108.101 85.9908C111.488 81.8373 113.366 76.6569 113.425 71.2975L104.62 71.2C104.583 74.5651 103.405 77.8178 101.278 80.4258C99.1506 83.0337 96.2012 84.8422 92.9123 85.5554C89.6234 86.2685 86.1899 85.8439 83.1738 84.3511C80.1576 82.8584 77.7376 80.3859 76.3099 77.3385L68.3366 81.0739Z" fill="#D9D9D9"/>
<path d="M94.2063 38.6587L70.5639 117.009L47.9302 59.1541L26.4261 117.009L0.161377 38.6587H18.6799L30.5817 76.664L41.475 47.0908L38.6508 38.6587H58.3393L72.0567 76.664L82.9499 38.6587H94.2063Z" fill="#CAAD69"/>
<path d="M2.31628 105.413C2.33111 108.52 2.95783 111.594 4.16066 114.459C5.3635 117.325 7.11888 119.925 9.32659 122.112C11.5343 124.299 14.1511 126.028 17.0276 127.204C19.904 128.379 22.9839 128.978 26.0912 128.962C29.1986 128.948 32.2726 128.321 35.1377 127.118C38.0029 125.915 40.603 124.16 42.7897 121.952C44.9765 119.744 46.7069 117.128 47.8824 114.251C49.0578 111.375 49.6552 108.295 49.6403 105.187L40.3105 105.232C40.3194 107.114 39.9576 108.979 39.2457 110.721C38.5337 112.464 37.4855 114.049 36.1611 115.386C34.8365 116.723 33.2616 117.787 31.5262 118.515C29.7907 119.244 27.9289 119.623 26.0467 119.632C24.1646 119.642 22.2991 119.279 20.5569 118.568C18.8146 117.856 17.2295 116.807 15.8923 115.483C14.5551 114.159 13.4918 112.583 12.7633 110.848C12.0347 109.113 11.6552 107.251 11.6462 105.369L2.31628 105.413Z" fill="#4C577C" fill-opacity="0.61"/>
<path d="M113.426 45.6962C113.426 42.5889 112.815 39.5119 111.625 36.6411C110.436 33.7702 108.693 31.1617 106.496 28.9645C104.299 26.7673 101.69 25.0243 98.8192 23.8351C95.9484 22.646 92.8713 22.0339 89.764 22.0339C86.6566 22.0339 83.5796 22.646 80.7088 23.8351C77.8379 25.0243 75.2294 26.7673 73.0322 28.9645C70.835 31.1617 69.092 33.7702 67.9028 36.6411C66.7137 39.5119 66.1017 42.5888 66.1017 45.6962H74.9067C74.9067 43.7451 75.2909 41.8131 76.0375 40.0106C76.7842 38.208 77.8786 36.5701 79.2582 35.1905C80.6379 33.8108 82.2758 32.7165 84.0783 31.9698C85.8809 31.2232 87.8129 30.8389 89.764 30.8389C91.7151 30.8389 93.647 31.2232 95.4496 31.9698C97.2522 32.7165 98.8901 33.8108 100.27 35.1905C101.649 36.5701 102.744 38.208 103.49 40.0106C104.237 41.8131 104.621 43.7451 104.621 45.6962H113.426Z" fill="#4C577C" fill-opacity="0.61"/>
</svg>
