<svg width="21" height="6" viewBox="0 0 21 6" fill="none" xmlns="http://www.w3.org/2000/svg">
<path d="M3.60986 1C2.50986 1 1.60986 1.9 1.60986 3C1.60986 4.1 2.50986 5 3.60986 5C4.70986 5 5.60986 4.1 5.60986 3C5.60986 1.9 4.70986 1 3.60986 1Z" stroke="#4C577C" stroke-width="1.5"/>
<path d="M17.6099 1C16.5099 1 15.6099 1.9 15.6099 3C15.6099 4.1 16.5099 5 17.6099 5C18.7099 5 19.6099 4.1 19.6099 3C19.6099 1.9 18.7099 1 17.6099 1Z" stroke="#4C577C" stroke-width="1.5"/>
<path d="M10.6099 1C9.50986 1 8.60986 1.9 8.60986 3C8.60986 4.1 9.50986 5 10.6099 5C11.7099 5 12.6099 4.1 12.6099 3C12.6099 1.9 11.7099 1 10.6099 1Z" stroke="#4C577C" stroke-width="1.5"/>
</svg>
