<svg width="28" height="28" viewBox="0 0 28 28" fill="none" xmlns="http://www.w3.org/2000/svg">
<path d="M6.41665 11.6667C8.67181 11.6667 10.5 9.8385 10.5 7.58333C10.5 5.32817 8.67181 3.5 6.41665 3.5C4.16148 3.5 2.33331 5.32817 2.33331 7.58333C2.33331 9.8385 4.16148 11.6667 6.41665 11.6667Z" stroke="#292D32" stroke-width="2" stroke-linecap="round" stroke-linejoin="round"/>
<path d="M6.41665 24.5C8.67181 24.5 10.5 22.6719 10.5 20.4167C10.5 18.1615 8.67181 16.3334 6.41665 16.3334C4.16148 16.3334 2.33331 18.1615 2.33331 20.4167C2.33331 22.6719 4.16148 24.5 6.41665 24.5Z" stroke="#292D32" stroke-width="2" stroke-linecap="round" stroke-linejoin="round"/>
<path d="M25.6667 7L10.0917 18.6433" stroke="#292D32" stroke-width="2" stroke-linecap="round" stroke-linejoin="round"/>
<path d="M25.6667 20.9651L10.0917 9.31006" stroke="#292D32" stroke-width="2" stroke-linecap="round" stroke-linejoin="round"/>
</svg>
