<svg width="25" height="24" viewBox="0 0 25 24" fill="none" xmlns="http://www.w3.org/2000/svg">
<g clip-path="url(#clip0_798_810)">
<path d="M23.2899 10.8516C23.5742 11.1666 23.7316 11.5759 23.7316 12.0002C23.7316 12.4245 23.5742 12.8338 23.2899 13.1488C21.4899 15.0859 17.3928 18.8574 12.6099 18.8574C7.82709 18.8574 3.72995 15.0859 1.92995 13.1488C1.64565 12.8338 1.48828 12.4245 1.48828 12.0002C1.48828 11.5759 1.64565 11.1666 1.92995 10.8516C3.72995 8.9145 7.82709 5.14307 12.6099 5.14307C17.3928 5.14307 21.4899 8.9145 23.2899 10.8516Z" stroke="#000001" stroke-opacity="0.72" stroke-width="1.5" stroke-linecap="round" stroke-linejoin="round"/>
<path d="M12.6097 15.4289C14.5033 15.4289 16.0383 13.8939 16.0383 12.0003C16.0383 10.1068 14.5033 8.57178 12.6097 8.57178C10.7162 8.57178 9.18115 10.1068 9.18115 12.0003C9.18115 13.8939 10.7162 15.4289 12.6097 15.4289Z" stroke="#000001" stroke-opacity="0.72" stroke-width="1.5" stroke-linecap="round" stroke-linejoin="round"/>
</g>
<defs>
<clipPath id="clip0_798_810">
<rect width="24" height="24" fill="white" transform="translate(0.609863)"/>
</clipPath>
</defs>
</svg>
