<svg width="34" height="33" viewBox="0 0 34 33" fill="none" xmlns="http://www.w3.org/2000/svg">
<circle cx="17.1099" cy="16.5" r="16.5" fill="white"/>
<path d="M10.6099 15C10.0576 15 9.60986 15.4477 9.60986 16C9.60986 16.5523 10.0576 17 10.6099 17L10.6099 15ZM24.317 16.7071C24.7075 16.3166 24.7075 15.6834 24.317 15.2929L17.953 8.92893C17.5625 8.53841 16.9293 8.53841 16.5388 8.92893C16.1483 9.31946 16.1483 9.95262 16.5388 10.3431L22.1957 16L16.5388 21.6569C16.1483 22.0474 16.1483 22.6805 16.5388 23.0711C16.9293 23.4616 17.5625 23.4616 17.953 23.0711L24.317 16.7071ZM10.6099 17L23.6099 17L23.6099 15L10.6099 15L10.6099 17Z" fill="#4C577C"/>
</svg>
