<svg width="26" height="25" viewBox="0 0 26 25" fill="none" xmlns="http://www.w3.org/2000/svg">
<circle cx="13.1099" cy="12.5" r="12.5" fill="#F2F2F2"/>
<path d="M6.60986 11.25C6.19565 11.25 5.85986 11.5858 5.85986 12C5.85986 12.4142 6.19565 12.75 6.60986 12.75L6.60986 11.25ZM20.1402 12.5303C20.4331 12.2374 20.4331 11.7626 20.1402 11.4697L15.3672 6.6967C15.0743 6.40381 14.5995 6.40381 14.3066 6.6967C14.0137 6.98959 14.0137 7.46447 14.3066 7.75736L18.5492 12L14.3066 16.2426C14.0137 16.5355 14.0137 17.0104 14.3066 17.3033C14.5995 17.5962 15.0743 17.5962 15.3672 17.3033L20.1402 12.5303ZM6.60986 12.75L19.6099 12.75L19.6099 11.25L6.60986 11.25L6.60986 12.75Z" fill="#4C577C" fill-opacity="0.61"/>
</svg>
